<?xml version="1.0" encoding="utf-8"?>
<!-- Generator: Adobe Illustrator 16.0.0, SVG Export Plug-In . SVG Version: 6.00 Build 0)  -->
<!DOCTYPE svg PUBLIC "-//W3C//DTD SVG 1.1//EN" "http://www.w3.org/Graphics/SVG/1.1/DTD/svg11.dtd">
<svg version="1.1" id="Layer_1" xmlns="http://www.w3.org/2000/svg" xmlns:xlink="http://www.w3.org/1999/xlink" x="0px" y="0px"
	 width="800px" height="600px" viewBox="0 0 800 600" enable-background="new 0 0 800 600" xml:space="preserve">
<path d="M408.434,84.429c210.521,0,241.956,135,241.956,215.453c0,139.588-85.925,216.461-241.956,216.461c0,0-252.949,0-258.045,0
	c0-5.119,0-426.81,0-431.914C155.484,84.429,408.434,84.429,408.434,84.429 M170.704,104.735v391.291h237.729
	c143.555,0,221.645-66.872,221.645-196.145c0-132.849-84.647-195.146-221.645-195.146H170.704z"/>
<rect x="202.597" y="328.649" width="76.106" height="135.479"/>
<path d="M287.938,260.413c0,26.125-21.167,47.303-47.293,47.303c-26.115,0-47.303-21.178-47.303-47.303
	c0-26.104,21.188-47.295,47.303-47.295C266.77,213.118,287.938,234.309,287.938,260.413"/>
<path fill="#D30D7D" d="M437.259,282.548v21.92h-54.229V216.47h52.478v21.914c0,0-18.675,0-30.553,0c0,3.019,0,6.484,0,10.2h28.897
	v21.906h-28.897c0,4.399,0,8.548,0,12.059C417.177,282.548,437.259,282.548,437.259,282.548 M447.791,304.498l26.542-88.065h31.19
	l26.537,88.065h-22.818l-4.975-17.04h-28.676l-4.988,17.04H447.791z M481.994,265.556h15.864l-7.252-24.885h-1.318L481.994,265.556z
	 M543.078,216.439h21.918c0,0,0,49.979,0,66.109c4.863,0,18.213,0,32.484,0c-8.91-119.958-103.276-145.877-189.031-145.877h-91.424
	v79.813h13.536c24.67,0,40,16.729,40,43.643c0,27.766-14.959,44.341-40,44.341h-13.536v159.704h91.424
	c139.421,0,187.942-64.751,189.656-159.704h-55.027V216.439z M317.009,238.396c0,12.238,0,31.922,0,44.151
	c6.705,0,13.552,0,13.552,0c9.388,0,18.061-2.711,18.061-22.421c0-19.263-9.651-21.73-18.061-21.73
	C330.561,238.396,323.714,238.396,317.009,238.396z"/>
</svg>
