<?xml version="1.0" encoding="utf-8"?>
<!-- Generator: Adobe Illustrator 16.0.0, SVG Export Plug-In . SVG Version: 6.00 Build 0)  -->
<!DOCTYPE svg PUBLIC "-//W3C//DTD SVG 1.1//EN" "http://www.w3.org/Graphics/SVG/1.1/DTD/svg11.dtd">
<svg version="1.1" id="Layer_1" xmlns="http://www.w3.org/2000/svg" xmlns:xlink="http://www.w3.org/1999/xlink" x="0px" y="0px"
	 width="800px" height="600px" viewBox="0 0 800 600" enable-background="new 0 0 800 600" xml:space="preserve">
<path d="M248.441,218.442c79.881,0,91.808,51.225,91.808,81.752c0,52.966-32.603,82.135-91.808,82.135c0,0-95.98,0-97.914,0
	c0-1.942,0-161.95,0-163.887C152.461,218.442,248.441,218.442,248.441,218.442 M158.236,226.147V374.62h90.205
	c54.471,0,84.102-25.374,84.102-74.426c0-50.409-32.119-74.047-84.102-74.047H158.236z"/>
<rect x="170.338" y="311.11" width="28.878" height="51.406"/>
<path d="M202.72,285.218c0,9.913-8.032,17.949-17.945,17.949c-9.909,0-17.949-8.036-17.949-17.949
	c0-9.905,8.04-17.946,17.949-17.946C194.688,267.272,202.72,275.313,202.72,285.218"/>
<path fill="#D30D7D" d="M259.379,293.617v8.317h-20.577v-33.39h19.912v8.315c0,0-7.086,0-11.593,0c0,1.146,0,2.46,0,3.87h10.965
	v8.312h-10.965c0,1.669,0,3.244,0,4.576C251.759,293.617,259.379,293.617,259.379,293.617 M263.375,301.946l10.072-33.416h11.834
	l10.07,33.416h-8.658l-1.888-6.466h-10.881l-1.893,6.466H263.375z M276.354,287.17h6.02l-2.752-9.442h-0.5L276.354,287.17z
	 M299.531,268.533h8.317c0,0,0,18.964,0,25.084c1.845,0,6.911,0,12.327,0c-3.381-45.517-39.188-55.352-71.727-55.352h-34.691v30.285
	h5.136c9.361,0,15.178,6.348,15.178,16.56c0,10.536-5.676,16.825-15.178,16.825h-5.136v60.599h34.691
	c52.902,0,71.313-24.569,71.963-60.599h-20.88V268.533z M213.751,276.864c0,4.644,0,12.113,0,16.753c2.544,0,5.142,0,5.142,0
	c3.562,0,6.853-1.029,6.853-8.507c0-7.309-3.662-8.246-6.853-8.246C218.893,276.864,216.295,276.864,213.751,276.864z"/>
<path fill="#D30D7D" d="M397.543,299.563c-1.769,1.821-4.329,2.733-7.678,2.733s-5.909-0.912-7.678-2.733
	c-2.375-2.237-3.562-5.458-3.562-9.666c0-4.291,1.187-7.512,3.562-9.663c1.769-1.823,4.329-2.734,7.678-2.734
	s5.909,0.912,7.678,2.734c2.363,2.151,3.546,5.373,3.546,9.663C401.089,294.105,399.906,297.326,397.543,299.563 M394.477,295.991
	c1.138-1.428,1.708-3.458,1.708-6.093c0-2.622-0.57-4.651-1.708-6.084c-1.139-1.434-2.677-2.15-4.614-2.15
	c-1.939,0-3.486,0.715-4.64,2.143c-1.155,1.428-1.731,3.458-1.731,6.092c0,2.635,0.576,4.666,1.731,6.093
	c1.154,1.428,2.701,2.142,4.64,2.142C391.8,298.132,393.338,297.418,394.477,295.991z"/>
<path fill="#D30D7D" d="M418.104,285.312c1.132,0.94,1.7,2.495,1.7,4.667v11.668h-4.645V291.11c0-0.912-0.12-1.61-0.363-2.098
	c-0.439-0.89-1.281-1.335-2.52-1.335c-1.522,0-2.568,0.653-3.135,1.956c-0.295,0.688-0.441,1.568-0.441,2.638v9.377h-4.532v-17.302
	h4.386v2.534c0.578-0.892,1.128-1.534,1.646-1.928c0.926-0.701,2.102-1.051,3.527-1.051
	C415.51,283.902,416.97,284.373,418.104,285.312"/>
<rect x="423.791" y="278.203" fill="#D30D7D" width="4.533" height="23.446"/>
<path fill="#D30D7D" d="M437.085,282.256h-4.588v-4.183h4.588V282.256z M432.497,284.31h4.588v17.339h-4.588V284.31z"/>
<path fill="#D30D7D" d="M455.116,285.312c1.134,0.94,1.702,2.495,1.702,4.667v11.668h-4.646V291.11c0-0.912-0.12-1.61-0.361-2.098
	c-0.441-0.89-1.28-1.335-2.52-1.335c-1.522,0-2.568,0.653-3.137,1.956c-0.293,0.688-0.439,1.568-0.439,2.638v9.377h-4.534v-17.302
	h4.386v2.534c0.58-0.892,1.131-1.534,1.646-1.928c0.928-0.701,2.104-1.051,3.527-1.051
	C452.523,283.902,453.983,284.373,455.116,285.312"/>
<path fill="#D30D7D" d="M472.011,284.659c1.208,0.542,2.208,1.396,2.995,2.564c0.711,1.03,1.171,2.224,1.384,3.583
	c0.12,0.797,0.171,1.944,0.148,3.441h-12.623c0.069,1.739,0.674,2.959,1.812,3.659c0.69,0.435,1.524,0.651,2.498,0.651
	c1.034,0,1.871-0.264,2.518-0.791c0.352-0.286,0.663-0.682,0.932-1.188h4.618c-0.12,1.029-0.683,2.073-1.681,3.133
	c-1.552,1.687-3.725,2.528-6.52,2.528c-2.305,0-4.341-0.711-6.104-2.132c-1.763-1.422-2.645-3.738-2.645-6.944
	c0-3.004,0.795-5.308,2.388-6.91c1.592-1.604,3.658-2.406,6.2-2.406C469.442,283.847,470.8,284.118,472.011,284.659
	 M465.233,288.572c-0.643,0.659-1.044,1.551-1.208,2.676h7.809c-0.082-1.199-0.484-2.11-1.207-2.731
	c-0.723-0.621-1.618-0.933-2.688-0.933C466.775,287.584,465.874,287.914,465.233,288.572z"/>
<path fill="#D30D7D" d="M502.026,286.404c1.296,1.644,1.942,3.762,1.942,6.359c0,2.692-0.637,4.923-1.914,6.693
	s-3.06,2.655-5.347,2.655c-1.436,0-2.593-0.285-3.464-0.859c-0.522-0.34-1.084-0.933-1.69-1.782v2.178h-4.479v-23.408h4.533v8.339
	c0.576-0.805,1.211-1.42,1.904-1.845c0.82-0.53,1.865-0.795,3.134-0.795C498.937,283.939,500.731,284.762,502.026,286.404
	 M498.24,296.958c0.648-0.943,0.974-2.183,0.974-3.719c0-1.229-0.161-2.247-0.48-3.052c-0.606-1.525-1.725-2.288-3.354-2.288
	c-1.65,0-2.785,0.747-3.401,2.241c-0.321,0.794-0.48,1.822-0.48,3.083c0,1.484,0.329,2.713,0.99,3.687
	c0.66,0.976,1.666,1.463,3.02,1.463C496.68,298.373,497.589,297.902,498.24,296.958z"/>
<path fill="#D30D7D" d="M518.088,284.659c1.209,0.542,2.209,1.396,2.996,2.564c0.711,1.03,1.171,2.224,1.381,3.583
	c0.123,0.797,0.173,1.944,0.151,3.441h-12.624c0.07,1.739,0.675,2.959,1.813,3.659c0.69,0.435,1.523,0.651,2.497,0.651
	c1.032,0,1.872-0.264,2.517-0.791c0.354-0.286,0.662-0.682,0.934-1.188h4.618c-0.123,1.029-0.683,2.073-1.681,3.133
	c-1.552,1.687-3.725,2.528-6.52,2.528c-2.308,0-4.342-0.711-6.104-2.132c-1.763-1.422-2.646-3.738-2.646-6.944
	c0-3.004,0.797-5.308,2.39-6.91c1.592-1.604,3.658-2.406,6.2-2.406C515.52,283.847,516.879,284.118,518.088,284.659
	 M511.312,288.572c-0.641,0.659-1.044,1.551-1.209,2.676h7.809c-0.082-1.199-0.483-2.11-1.206-2.731
	c-0.724-0.621-1.619-0.933-2.689-0.933C512.854,287.584,511.952,287.914,511.312,288.572z"/>
<path fill="#D30D7D" d="M522.803,287.696v-3.22h2.424v-4.848h4.478v4.848h2.812v3.22h-2.812v9.161c0,0.71,0.09,1.153,0.269,1.329
	c0.181,0.174,0.733,0.262,1.654,0.262c0.137,0,0.283-0.003,0.437-0.009c0.154-0.006,0.305-0.016,0.453-0.028v3.386l-2.145,0.094
	c-2.138,0.072-3.6-0.298-4.383-1.114c-0.51-0.52-0.763-1.321-0.763-2.402v-10.677H522.803"/>
<path fill="#D30D7D" d="M541.973,291.107c0.843-0.105,1.445-0.238,1.809-0.397c0.65-0.275,0.976-0.704,0.976-1.287
	c0-0.709-0.249-1.2-0.749-1.47s-1.234-0.406-2.202-0.406c-1.087,0-1.855,0.266-2.306,0.796c-0.323,0.393-0.538,0.922-0.646,1.591
	h-4.367c0.097-1.517,0.522-2.764,1.279-3.741c1.203-1.527,3.269-2.292,6.194-2.292c1.907,0,3.599,0.377,5.078,1.13
	c1.481,0.754,2.221,2.174,2.221,4.262v7.946c0,0.55,0.01,1.219,0.032,2.002c0.032,0.596,0.122,1,0.271,1.213
	c0.15,0.212,0.373,0.388,0.672,0.526v0.666h-4.934c-0.138-0.351-0.234-0.68-0.287-0.987c-0.052-0.309-0.096-0.66-0.126-1.052
	c-0.631,0.679-1.355,1.256-2.177,1.733c-0.979,0.562-2.088,0.844-3.325,0.844c-1.578,0-2.881-0.448-3.911-1.343
	c-1.028-0.896-1.542-2.165-1.542-3.807c0-2.129,0.827-3.671,2.481-4.625c0.908-0.519,2.241-0.89,4.004-1.112L541.973,291.107
	 M544.741,293.222c-0.291,0.181-0.585,0.326-0.88,0.438c-0.295,0.11-0.7,0.214-1.217,0.309l-1.032,0.191
	c-0.968,0.168-1.662,0.375-2.082,0.618c-0.709,0.414-1.063,1.054-1.063,1.922c0,0.773,0.217,1.331,0.652,1.675
	c0.436,0.345,0.966,0.516,1.59,0.516c0.988,0,1.899-0.286,2.733-0.857c0.833-0.571,1.267-1.614,1.299-3.128V293.222z"/>
<rect x="552.978" y="278.203" fill="#D30D7D" width="4.534" height="23.446"/>
<path fill="#D30D7D" d="M572.906,284.659c1.209,0.542,2.206,1.396,2.995,2.564c0.711,1.03,1.171,2.224,1.382,3.583
	c0.123,0.797,0.173,1.944,0.148,3.441h-12.623c0.07,1.739,0.674,2.959,1.812,3.659c0.693,0.435,1.526,0.651,2.5,0.651
	c1.032,0,1.871-0.264,2.516-0.791c0.352-0.286,0.663-0.682,0.934-1.188h4.618c-0.122,1.029-0.683,2.073-1.681,3.133
	c-1.552,1.687-3.727,2.528-6.52,2.528c-2.309,0-4.343-0.711-6.105-2.132c-1.764-1.422-2.645-3.738-2.645-6.944
	c0-3.004,0.797-5.308,2.39-6.91c1.592-1.604,3.658-2.406,6.198-2.406C570.336,283.847,571.695,284.118,572.906,284.659
	 M566.127,288.572c-0.641,0.659-1.042,1.551-1.206,2.676h7.809c-0.083-1.199-0.486-2.11-1.209-2.731
	c-0.723-0.621-1.618-0.933-2.688-0.933C567.669,287.584,566.768,287.914,566.127,288.572z"/>
<path fill="#D30D7D" d="M593.366,285.312c1.135,0.94,1.701,2.495,1.701,4.667v11.668h-4.645V291.11c0-0.912-0.12-1.61-0.361-2.098
	c-0.441-0.89-1.281-1.335-2.52-1.335c-1.524,0-2.568,0.653-3.137,1.956c-0.293,0.688-0.439,1.568-0.439,2.638v9.377h-4.534v-17.302
	h4.386v2.534c0.58-0.892,1.128-1.534,1.646-1.928c0.928-0.701,2.104-1.051,3.527-1.051
	C590.774,283.902,592.232,284.373,593.366,285.312"/>
<polyline fill="#D30D7D" points="389.796,320.134 394.662,320.134 388.407,337.473 383.628,337.473 377.412,320.134 382.5,320.134 
	386.11,332.924 389.796,320.134 "/>
<path fill="#D30D7D" d="M401.575,318.08h-4.59v-4.183h4.59V318.08z M396.985,320.134h4.59v17.339h-4.59V320.134z"/>
<path fill="#D30D7D" d="M412.506,326.933c0.844-0.104,1.448-0.239,1.812-0.397c0.65-0.275,0.976-0.703,0.976-1.287
	c0-0.709-0.249-1.199-0.749-1.47c-0.502-0.271-1.234-0.405-2.202-0.405c-1.087,0-1.854,0.267-2.306,0.797
	c-0.323,0.392-0.538,0.922-0.646,1.59h-4.367c0.097-1.518,0.522-2.765,1.279-3.74c1.202-1.528,3.267-2.291,6.196-2.291
	c1.903,0,3.598,0.375,5.078,1.13c1.479,0.753,2.219,2.175,2.219,4.259v7.947c0,0.551,0.012,1.219,0.032,2.004
	c0.032,0.595,0.122,1,0.271,1.213c0.15,0.213,0.374,0.388,0.673,0.526v0.665h-4.934c-0.139-0.35-0.234-0.68-0.287-0.986
	c-0.054-0.31-0.094-0.66-0.126-1.052c-0.631,0.679-1.355,1.257-2.175,1.732c-0.981,0.561-2.09,0.843-3.327,0.843
	c-1.578,0-2.881-0.447-3.911-1.343c-1.028-0.896-1.542-2.165-1.542-3.807c0-2.129,0.827-3.671,2.481-4.625
	c0.907-0.52,2.243-0.889,4.004-1.112L412.506,326.933 M415.277,329.047c-0.289,0.179-0.583,0.325-0.88,0.436
	c-0.295,0.112-0.701,0.217-1.217,0.312l-1.032,0.19c-0.968,0.169-1.662,0.376-2.082,0.619c-0.709,0.413-1.064,1.052-1.064,1.921
	c0,0.773,0.217,1.331,0.652,1.677c0.437,0.342,0.967,0.514,1.589,0.514c0.99,0,1.901-0.285,2.734-0.854
	c0.836-0.575,1.268-1.617,1.3-3.129V329.047z"/>
<path fill="#D30D7D" d="M436.659,320.134v10.459c0,0.986,0.116,1.729,0.348,2.229c0.411,0.881,1.221,1.318,2.425,1.318
	c1.541,0,2.597-0.624,3.167-1.877c0.297-0.679,0.443-1.576,0.443-2.688v-9.441h4.591v17.339h-4.405v-2.442
	c-0.041,0.055-0.147,0.213-0.317,0.479c-0.169,0.263-0.37,0.497-0.603,0.7c-0.707,0.635-1.392,1.068-2.052,1.304
	c-0.663,0.23-1.437,0.349-2.325,0.349c-2.559,0-4.283-0.921-5.171-2.769c-0.498-1.016-0.745-2.518-0.745-4.502v-10.457H436.659"/>
<polyline fill="#D30D7D" points="459.891,320.134 464.486,320.134 467.127,332.621 469.83,320.134 474.553,320.134 469.528,337.473 
	464.868,337.473 462.149,324.843 459.398,337.473 454.69,337.473 449.825,320.134 454.69,320.134 457.395,332.575 459.891,320.134 
	"/>
<path fill="#D30D7D" d="M496.74,320.483c1.208,0.542,2.206,1.397,2.995,2.565c0.711,1.028,1.171,2.226,1.382,3.583
	c0.122,0.797,0.173,1.943,0.148,3.439h-12.624c0.07,1.74,0.675,2.959,1.813,3.66c0.692,0.434,1.526,0.65,2.5,0.65
	c1.032,0,1.871-0.263,2.518-0.791c0.35-0.285,0.663-0.681,0.932-1.188h4.618c-0.122,1.03-0.683,2.074-1.681,3.134
	c-1.552,1.687-3.727,2.528-6.52,2.528c-2.309,0-4.341-0.711-6.105-2.133c-1.764-1.423-2.645-3.738-2.645-6.943
	c0-3.004,0.797-5.309,2.389-6.911c1.593-1.604,3.659-2.405,6.201-2.405C494.17,319.672,495.529,319.943,496.74,320.483
	 M489.961,324.396c-0.641,0.661-1.042,1.553-1.206,2.677h7.809c-0.083-1.199-0.486-2.11-1.209-2.73
	c-0.723-0.623-1.618-0.934-2.688-0.934C491.503,323.409,490.602,323.74,489.961,324.396z"/>
<path fill="#D30D7D" d="M507.892,318.08h-4.59v-4.183h4.59V318.08z M503.302,320.134h4.59v17.339h-4.59V320.134z"/>
<path fill="#D30D7D" d="M520.536,320.126c1.1,0.454,1.989,1.291,2.666,2.51v-2.502h4.424v16.444c0,2.237-0.378,3.922-1.131,5.057
	c-1.293,1.951-3.774,2.926-7.443,2.926c-2.217,0-4.025-0.437-5.425-1.304c-1.4-0.871-2.175-2.169-2.323-3.896h4.923
	c0.127,0.528,0.336,0.908,0.621,1.141c0.489,0.41,1.312,0.616,2.472,0.616c1.638,0,2.732-0.544,3.286-1.634
	c0.359-0.699,0.54-1.874,0.54-3.524v-1.112c-0.434,0.743-0.901,1.297-1.399,1.667c-0.901,0.688-2.072,1.032-3.516,1.032
	c-2.227,0-4.006-0.781-5.337-2.346c-1.331-1.562-1.996-3.679-1.996-6.349c0-2.576,0.639-4.741,1.92-6.494
	c1.281-1.755,3.096-2.63,5.447-2.63C519.132,319.729,519.889,319.86,520.536,320.126 M522.074,332.553
	c0.727-0.801,1.092-2.074,1.092-3.825c0-1.643-0.348-2.894-1.038-3.753c-0.69-0.857-1.616-1.287-2.779-1.287
	c-1.582,0-2.676,0.747-3.276,2.241c-0.317,0.795-0.477,1.777-0.477,2.943c0,1.008,0.169,1.903,0.509,2.687
	c0.612,1.464,1.708,2.195,3.293,2.195C520.453,333.754,521.345,333.354,522.074,332.553z"/>
<path fill="#D30D7D" d="M542.817,320.483c1.209,0.542,2.209,1.397,2.996,2.565c0.709,1.028,1.171,2.226,1.381,3.583
	c0.123,0.797,0.171,1.943,0.151,3.439h-12.624c0.07,1.74,0.673,2.959,1.812,3.66c0.692,0.434,1.525,0.65,2.499,0.65
	c1.032,0,1.872-0.263,2.517-0.791c0.354-0.285,0.662-0.681,0.934-1.188h4.618c-0.123,1.03-0.683,2.074-1.681,3.134
	c-1.553,1.687-3.725,2.528-6.52,2.528c-2.308,0-4.344-0.711-6.104-2.133c-1.765-1.423-2.646-3.738-2.646-6.943
	c0-3.004,0.797-5.309,2.39-6.911c1.592-1.604,3.658-2.405,6.2-2.405C540.247,319.672,541.606,319.943,542.817,320.483
	 M536.039,324.396c-0.641,0.661-1.042,1.553-1.207,2.677h7.809c-0.082-1.199-0.483-2.11-1.207-2.73
	c-0.723-0.623-1.62-0.934-2.688-0.934C537.581,323.409,536.68,323.74,536.039,324.396z"/>
<path fill="#D30D7D" d="M563.278,321.138c1.134,0.939,1.7,2.494,1.7,4.667v11.668h-4.642v-10.536c0-0.911-0.123-1.612-0.364-2.099
	c-0.441-0.889-1.28-1.335-2.52-1.335c-1.524,0-2.568,0.65-3.135,1.956c-0.295,0.687-0.441,1.566-0.441,2.639v9.375h-4.534V320.17
	h4.386v2.534c0.58-0.892,1.131-1.532,1.646-1.926c0.928-0.7,2.104-1.05,3.527-1.05C560.686,319.729,562.144,320.198,563.278,321.138
	"/>
<path fill="#D30D7D" d="M592.4,322.229c1.296,1.645,1.944,3.763,1.944,6.358c0,2.692-0.639,4.924-1.916,6.694
	c-1.276,1.77-3.058,2.654-5.347,2.654c-1.436,0-2.591-0.287-3.462-0.859c-0.521-0.339-1.086-0.934-1.692-1.78v2.177h-4.478v-23.406
	h4.533v8.338c0.574-0.805,1.211-1.419,1.901-1.845c0.822-0.53,1.868-0.795,3.137-0.795
	C589.312,319.765,591.105,320.586,592.4,322.229 M588.614,332.783c0.65-0.943,0.974-2.182,0.974-3.718
	c0-1.229-0.159-2.247-0.479-3.053c-0.607-1.525-1.727-2.289-3.354-2.289c-1.65,0-2.785,0.747-3.403,2.241
	c-0.319,0.795-0.479,1.823-0.479,3.084c0,1.482,0.33,2.711,0.99,3.687s1.667,1.462,3.02,1.462
	C587.054,334.197,587.965,333.728,588.614,332.783z"/>
<path fill="#D30D7D" d="M604.039,326.933c0.843-0.104,1.447-0.239,1.809-0.397c0.652-0.275,0.978-0.703,0.978-1.287
	c0-0.709-0.251-1.199-0.751-1.47c-0.499-0.271-1.232-0.405-2.2-0.405c-1.086,0-1.855,0.267-2.307,0.797
	c-0.323,0.392-0.538,0.922-0.645,1.59h-4.368c0.097-1.518,0.522-2.765,1.277-3.74c1.203-1.528,3.27-2.291,6.196-2.291
	c1.906,0,3.599,0.375,5.078,1.13c1.48,0.753,2.221,2.175,2.221,4.259v7.947c0,0.551,0.011,1.219,0.032,2.004
	c0.03,0.595,0.123,1,0.271,1.213s0.373,0.388,0.67,0.526v0.665h-4.933c-0.139-0.35-0.233-0.68-0.285-0.986
	c-0.055-0.31-0.097-0.66-0.129-1.052c-0.628,0.679-1.354,1.257-2.175,1.732c-0.981,0.561-2.09,0.843-3.327,0.843
	c-1.576,0-2.881-0.447-3.909-1.343s-1.544-2.165-1.544-3.807c0-2.129,0.827-3.671,2.481-4.625c0.91-0.52,2.243-0.889,4.006-1.112
	L604.039,326.933 M606.81,329.047c-0.291,0.179-0.584,0.325-0.88,0.436c-0.295,0.112-0.702,0.217-1.219,0.312l-1.031,0.19
	c-0.968,0.169-1.661,0.376-2.081,0.619c-0.71,0.413-1.065,1.052-1.065,1.921c0,0.773,0.219,1.331,0.654,1.677
	c0.434,0.342,0.966,0.514,1.588,0.514c0.99,0,1.901-0.285,2.735-0.854c0.833-0.575,1.265-1.617,1.299-3.129V329.047z"/>
<path fill="#D30D7D" d="M628.925,321.138c1.135,0.939,1.703,2.494,1.703,4.667v11.668h-4.646v-10.536
	c0-0.911-0.121-1.612-0.361-2.099c-0.442-0.889-1.281-1.335-2.521-1.335c-1.523,0-2.568,0.65-3.134,1.956
	c-0.296,0.687-0.442,1.566-0.442,2.639v9.375h-4.533V320.17h4.385v2.534c0.58-0.892,1.131-1.532,1.646-1.926
	c0.928-0.7,2.104-1.05,3.528-1.05C626.333,319.729,627.792,320.198,628.925,321.138"/>
<polyline fill="#D30D7D" points="634.484,314.12 638.944,314.12 638.944,326.76 644.652,320.227 650.287,320.227 644.078,326.682 
	650.528,337.473 645.017,337.473 640.819,330.069 638.944,332.021 638.944,337.473 634.484,337.473 634.484,314.12 "/>
</svg>
