<?xml version="1.0" encoding="utf-8"?>
<!-- Generator: Adobe Illustrator 16.0.0, SVG Export Plug-In . SVG Version: 6.00 Build 0)  -->
<!DOCTYPE svg PUBLIC "-//W3C//DTD SVG 1.1//EN" "http://www.w3.org/Graphics/SVG/1.1/DTD/svg11.dtd">
<svg version="1.1" id="Layer_1" xmlns="http://www.w3.org/2000/svg" xmlns:xlink="http://www.w3.org/1999/xlink" x="0px" y="0px"
	 width="1000px" height="863.824px" viewBox="0 0 1000 863.824" enable-background="new 0 0 1000 863.824" xml:space="preserve">
<path d="M516.094,0C937.134,0,1000,269.997,1000,430.904c0,279.176-171.842,432.92-483.906,432.92c0,0-505.901,0-516.094,0
	C0,853.588,0,10.208,0,0C10.193,0,516.094,0,516.094,0 M40.63,40.614v782.581h475.463c287.104,0,443.289-133.744,443.289-392.29
	c0-265.699-169.299-390.291-443.289-390.291H40.63z"/>
<rect x="104.418" y="488.445" width="152.208" height="270.957"/>
<path d="M275.095,351.97c0,52.246-42.333,94.598-94.585,94.598c-52.23,0-94.605-42.352-94.605-94.598
	c0-52.208,42.375-94.595,94.605-94.595C232.763,257.375,275.095,299.763,275.095,351.97"/>
<path fill="#CC0066" d="M573.744,396.236v43.844H465.281v-176h104.955v43.826c0,0-37.354,0-61.105,0c0,6.04,0,12.972,0,20.402
	h57.798v43.814H509.13c0,8.799,0,17.093,0,24.115C533.575,396.236,573.744,396.236,573.744,396.236 M594.804,440.138l53.088-176.132
	h62.377l53.076,176.132H717.71l-9.952-34.081h-57.354l-9.973,34.081H594.804z M663.208,362.253h31.731l-14.506-49.769h-2.629
	L663.208,362.253z M785.381,264.019h43.829c0,0,0,99.959,0,132.218c9.728,0,36.43,0,64.975,0
	c-17.822-239.916-206.55-291.751-378.058-291.751H333.271v159.623h27.073c49.34,0,80.001,33.46,80.001,87.287
	c0,55.536-29.92,88.685-80.001,88.685h-27.073v319.405h182.855c278.834,0,375.88-129.503,379.304-319.405h-110.05V264.019z
	 M333.242,307.932c0,24.478,0,63.849,0,88.304c13.408,0,27.103,0,27.103,0c18.776,0,36.123-5.422,36.123-44.841
	c0-38.523-19.303-43.463-36.123-43.463C360.345,307.932,346.65,307.932,333.242,307.932z"/>
</svg>
