<?xml version="1.0" encoding="UTF-8" standalone="no"?>
<svg
   xmlns:dc="http://purl.org/dc/elements/1.1/"
   xmlns:cc="http://creativecommons.org/ns#"
   xmlns:rdf="http://www.w3.org/1999/02/22-rdf-syntax-ns#"
   xmlns:svg="http://www.w3.org/2000/svg"
   xmlns="http://www.w3.org/2000/svg"
   xml:space="preserve"
   enable-background="new 0 0 1000 1000"
   viewBox="0 0 1000 1000"
   height="1000px"
   width="1000px"
   y="0px"
   x="0px"
   id="Layer_1"
   version="1.1"><metadata
     id="metadata15"><rdf:RDF><cc:Work
         rdf:about=""><dc:format>image/svg+xml</dc:format><dc:type
           rdf:resource="http://purl.org/dc/dcmitype/StillImage" /></cc:Work></rdf:RDF></metadata><defs
     id="defs13" /><path
     id="path3"
     d="M516.094,68.088c421.04,0,483.906,269.997,483.906,430.904c0,279.176-171.842,432.92-483.906,432.92  c0,0-505.901,0-516.094,0C0,921.676,0,78.296,0,68.088C10.193,68.088,516.094,68.088,516.094,68.088 M40.63,108.702v782.581h475.463  c287.104,0,443.289-133.744,443.289-392.29c0-265.699-169.299-390.291-443.289-390.291H40.63z" /><rect
     id="rect5"
     height="270.957"
     width="152.208"
     y="556.533"
     x="104.418" /><path
     id="path7"
     d="M275.095,420.058c0,52.246-42.333,94.598-94.585,94.598c-52.23,0-94.605-42.352-94.605-94.598  c0-52.208,42.375-94.595,94.605-94.595C232.763,325.463,275.095,367.851,275.095,420.058" /><path
     id="path9"
     d="M573.744,464.324v43.844H465.281v-176h104.955v43.826c0,0-37.354,0-61.105,0c0,6.04,0,12.972,0,20.402  h57.798v43.814H509.13c0,8.799,0,17.093,0,24.115C533.575,464.324,573.744,464.324,573.744,464.324 M594.804,508.226l53.088-176.132  h62.377l53.076,176.132H717.71l-9.952-34.081h-57.354l-9.973,34.081H594.804z M663.208,430.341h31.731l-14.506-49.769h-2.629  L663.208,430.341z M785.381,332.106h43.829c0,0,0,99.959,0,132.218c9.728,0,36.43,0,64.975,0  c-17.822-239.916-206.55-291.751-378.058-291.751H333.271v159.623h27.073c49.34,0,80.001,33.46,80.001,87.287  c0,55.536-29.92,88.685-80.001,88.685h-27.073v319.405h182.855c278.834,0,375.88-129.503,379.304-319.405h-110.05V332.106z   M333.242,376.02c0,24.478,0,63.849,0,88.304c13.408,0,27.103,0,27.103,0c18.776,0,36.123-5.422,36.123-44.841  c0-38.523-19.303-43.463-36.123-43.463C360.345,376.02,346.65,376.02,333.242,376.02z"
     fill="#CC0066" /></svg>