<?xml version="1.0" encoding="UTF-8" standalone="no"?>
<svg
   xmlns:dc="http://purl.org/dc/elements/1.1/"
   xmlns:cc="http://creativecommons.org/ns#"
   xmlns:rdf="http://www.w3.org/1999/02/22-rdf-syntax-ns#"
   xmlns:svg="http://www.w3.org/2000/svg"
   xmlns="http://www.w3.org/2000/svg"
   xml:space="preserve"
   enable-background="new 0 0 1000 1000"
   viewBox="0 0 1000 1000"
   height="1000px"
   width="1000px"
   y="0px"
   x="0px"
   id="Layer_1"
   version="1.1"><metadata
     id="metadata15"><rdf:RDF><cc:Work
         rdf:about=""><dc:format>image/svg+xml</dc:format><dc:type
           rdf:resource="http://purl.org/dc/dcmitype/StillImage" /></cc:Work></rdf:RDF></metadata><defs
     id="defs13" /><path
     id="path3"
     d="M513.264,154.856c336.832,0,387.125,215.998,387.125,344.724c0,223.34-137.474,346.335-387.125,346.335  c0,0-404.721,0-412.875,0c0-8.188,0-682.892,0-691.059C108.543,154.856,513.264,154.856,513.264,154.856 M132.893,187.347v626.064  h380.371c229.683,0,354.631-106.995,354.631-313.832c0-212.559-135.438-312.232-354.631-312.232H132.893z" /><rect
     id="rect5"
     height="216.766"
     width="121.767"
     y="545.612"
     x="183.923" /><path
     id="path7"
     d="M320.465,436.432c0,41.797-33.866,75.678-75.668,75.678c-41.784,0-75.684-33.881-75.684-75.678  c0-41.766,33.9-75.676,75.684-75.676C286.599,360.756,320.465,394.666,320.465,436.432" /><path
     id="path9"
     d="M559.384,471.845v35.075h-86.771v-140.8h83.964v35.061c0,0-29.883,0-48.885,0c0,4.832,0,10.377,0,16.321  h46.238v35.051h-46.238c0,7.039,0,13.674,0,19.292C527.249,471.845,559.384,471.845,559.384,471.845 M576.231,506.966  l42.471-140.905h49.901l42.461,140.905h-36.508l-7.962-27.264h-45.883l-7.978,27.264H576.231z M630.955,444.658h25.385  l-11.604-39.815h-2.103L630.955,444.658z M728.693,366.071h35.063c0,0,0,79.968,0,105.774c7.782,0,29.144,0,51.979,0  c-14.258-191.933-165.24-233.401-302.446-233.401H367.006v127.698h21.659c39.472,0,64.001,26.769,64.001,69.83  c0,44.428-23.936,70.948-64.001,70.948h-21.659v255.524H513.29c223.067,0,300.704-103.603,303.443-255.524h-88.04V366.071z   M366.982,401.202c0,19.583,0,51.079,0,70.644c10.727,0,21.682,0,21.682,0c15.021,0,28.898-4.338,28.898-35.873  c0-30.818-15.442-34.771-28.898-34.771C388.665,401.202,377.709,401.202,366.982,401.202z"
     fill="#CC0066" /></svg>